<?xml version="1.0" standalone="no"?>
<!DOCTYPE svg PUBLIC "-//W3C//DTD SVG 20010904//EN"
 "http://www.w3.org/TR/2001/REC-SVG-20010904/DTD/svg10.dtd">
<svg version="1.0" xmlns="http://www.w3.org/2000/svg"
 width="900.000000pt" height="900.000000pt" viewBox="0 0 900.000000 900.000000"
 preserveAspectRatio="xMidYMid meet">

<g transform="translate(0.000000,900.000000) scale(0.100000,-0.100000)"
fill="#000000" stroke="none">
<path d="M0 8990 c0 -7 1505 -10 4495 -10 2990 0 4495 3 4495 10 0 7 -1505 10
-4495 10 -2990 0 -4495 -3 -4495 -10z"/>
<path d="M4370 6824 c-91 -17 -220 -92 -275 -158 -59 -72 -93 -166 -60 -166 8
0 15 4 15 8 0 17 161 93 236 112 57 15 109 20 203 20 171 -1 279 -29 404 -106
32 -20 61 -33 65 -30 9 10 -17 75 -53 131 -38 60 -132 131 -218 164 -50 19
-84 24 -177 27 -63 1 -126 0 -140 -2z"/>
<path d="M4375 6601 c-148 -25 -259 -77 -338 -160 -55 -58 -69 -81 -46 -81 6
0 25 11 42 24 56 42 138 77 236 103 228 58 524 13 677 -103 17 -13 36 -24 42
-24 25 0 10 25 -51 84 -68 67 -155 115 -256 141 -74 19 -235 27 -306 16z"/>
<path d="M4345 6466 c-133 -23 -243 -71 -322 -140 -77 -67 -94 -105 -162 -356
-47 -171 -55 -196 -65 -206 -6 -7 -42 -29 -81 -50 -295 -159 -510 -394 -598
-656 -35 -103 -49 -185 -49 -303 -1 -214 50 -379 177 -569 44 -65 182 -215
229 -246 20 -14 36 -30 36 -36 0 -7 -21 -18 -47 -27 -99 -31 -375 -118 -548
-172 -99 -32 -265 -84 -370 -117 -249 -78 -341 -107 -510 -160 l-140 -44 -13
-59 c-11 -52 -81 -478 -153 -931 -12 -77 -20 -147 -17 -155 3 -9 86 -62 185
-119 202 -116 184 -106 398 -230 88 -52 275 -160 415 -240 140 -81 327 -189
415 -240 88 -51 243 -141 345 -200 366 -211 579 -335 789 -457 175 -102 218
-123 240 -118 14 4 96 46 181 94 85 49 245 139 355 201 110 62 229 129 265
150 75 43 431 245 505 285 28 16 111 63 185 105 74 43 171 98 215 122 44 25
112 64 152 86 82 48 129 74 193 110 25 14 95 53 155 87 61 35 133 75 160 90
28 15 82 46 120 69 73 42 118 68 224 125 35 19 65 40 68 47 4 11 -25 204 -62
409 -18 97 -43 249 -55 330 -6 33 -15 87 -20 120 -6 33 -15 87 -20 120 -24
148 -30 180 -42 191 -13 11 -132 52 -383 129 -66 20 -181 56 -255 80 -74 23
-189 60 -255 80 -66 21 -174 55 -240 75 -66 21 -194 61 -285 90 -91 28 -176
55 -190 60 -14 5 -99 32 -190 60 -162 50 -324 101 -630 199 l-155 49 -3 51
c-4 63 -5 63 148 15 63 -20 142 -44 175 -54 140 -42 310 -94 445 -137 80 -25
180 -55 223 -67 l79 -21 60 65 c114 122 194 258 250 421 31 91 32 99 32 269 1
206 -13 271 -94 435 -63 126 -125 209 -240 319 -230 218 -521 349 -875 392
-127 16 -319 15 -450 -2 -70 -9 -47 10 38 30 134 33 234 46 363 46 160 0 284
-20 428 -70 31 -10 58 -15 61 -10 8 12 -78 306 -103 357 -45 87 -181 175 -331
214 -99 26 -254 32 -356 15z m178 -83 c49 -8 97 -54 97 -94 0 -18 -11 -41 -29
-61 -28 -31 -33 -33 -101 -33 -69 0 -73 1 -102 34 -25 28 -29 40 -25 68 7 42
23 62 62 79 35 15 46 16 98 7z m-200 -224 c39 -38 98 -59 165 -59 71 0 124 18
165 57 34 34 37 11 4 -38 -61 -93 -238 -108 -313 -27 -28 31 -60 88 -48 88 2
0 15 -10 27 -21z m225 -371 c7 -7 12 -24 12 -38 0 -38 -18 -50 -72 -50 -40 0
-50 4 -64 25 -15 23 -15 27 0 50 14 21 24 25 64 25 27 0 53 -5 60 -12z m-584
-128 c37 -14 51 -46 32 -74 -30 -47 -105 -40 -128 10 -11 24 -10 29 15 50 31
26 43 29 81 14z m1138 -17 c26 -23 22 -48 -9 -73 -33 -26 -79 -21 -105 11 -24
28 -23 35 8 66 20 20 31 24 57 19 17 -3 39 -14 49 -23z m-481 -103 c77 -14
191 -73 247 -128 26 -26 61 -74 78 -107 25 -51 29 -72 29 -140 0 -66 -5 -90
-26 -136 -49 -104 -143 -184 -269 -230 -54 -19 -84 -23 -185 -23 -138 0 -199
15 -291 70 -83 49 -130 99 -167 173 -27 56 -31 73 -31 145 1 68 6 90 30 139
53 110 164 193 305 231 64 17 204 20 280 6z m-1066 -255 c30 -30 31 -45 4 -79
-18 -23 -27 -27 -67 -24 -35 2 -49 9 -65 30 -17 23 -19 31 -9 53 22 49 98 60
137 20z m1990 5 c23 -19 19 -76 -7 -94 -51 -36 -138 -4 -138 50 0 36 47 67 93
61 21 -3 44 -11 52 -17z m-430 -451 c-61 -241 -326 -419 -621 -419 -128 0
-222 22 -334 76 -153 76 -266 208 -300 351 -15 67 -8 88 14 42 56 -119 230
-244 405 -291 112 -30 307 -30 414 0 42 12 99 32 125 44 115 53 232 154 280
242 33 60 40 42 17 -45z m-1661 -90 c43 -34 31 -88 -25 -108 -61 -21 -119 10
-119 65 0 61 88 87 144 43z m2190 0 c31 -24 34 -57 8 -90 -15 -17 -29 -22 -65
-22 -55 0 -87 23 -87 63 0 64 87 94 144 49z m-1881 -441 c33 -17 46 -39 47
-75 0 -71 -114 -100 -171 -44 -16 16 -29 37 -29 46 0 62 92 106 153 73z m1565
-8 c27 -17 32 -25 32 -59 0 -51 -35 -81 -94 -81 -72 0 -117 48 -95 101 23 57
97 75 157 39z m-938 -953 l0 -312 -80 -63 c-44 -35 -80 -69 -80 -75 0 -11 81
-67 138 -96 l22 -12 0 -624 c0 -640 0 -648 -35 -617 -6 5 -37 19 -70 32 -33
13 -82 33 -110 46 -27 12 -68 29 -90 38 -22 9 -62 27 -89 39 l-49 22 7 265 c4
146 11 389 15 540 6 183 5 279 -2 288 -7 9 -27 11 -71 6 -34 -3 -64 -9 -68
-13 -6 -5 -20 -338 -35 -814 -3 -103 -10 -190 -15 -193 -5 -3 -29 4 -53 15
-25 12 -47 21 -50 21 -2 0 -28 11 -57 24 -29 13 -81 36 -116 51 l-63 28 6 101
c3 56 10 175 15 266 5 91 14 251 20 355 6 105 15 267 20 360 5 94 12 225 16
293 3 67 9 134 13 149 8 29 21 33 226 73 28 6 70 14 95 20 25 6 68 14 95 20
28 5 136 27 240 48 105 22 193 38 198 35 4 -2 7 -145 7 -316z m305 298 c39 -8
135 -29 215 -45 80 -16 199 -41 265 -55 66 -14 122 -25 125 -25 5 0 20 -14
121 -105 20 -18 39 -38 43 -44 4 -6 11 -89 16 -184 5 -94 14 -257 20 -362 6
-104 15 -266 20 -360 5 -93 12 -222 16 -285 l7 -115 -34 -42 c-149 -182 -124
-162 -276 -227 -76 -33 -160 -69 -188 -81 -27 -13 -84 -37 -125 -55 -41 -18
-88 -38 -105 -46 -138 -61 -191 -82 -197 -76 -4 4 -9 255 -12 557 -4 303 -9
778 -12 1058 -5 484 -4 507 13 507 10 0 50 -7 88 -15z m-1308 -307 c-4 -73
-11 -203 -17 -288 -19 -307 -30 -498 -41 -685 -15 -266 -9 -251 -97 -286 -78
-31 -74 -32 -178 16 -30 14 -57 25 -59 25 -2 0 -28 11 -57 24 -29 13 -82 36
-118 51 -83 36 -96 48 -120 118 -22 61 -22 43 10 382 6 61 15 157 20 215 12
134 28 287 36 368 8 71 -6 64 198 107 l29 6 -7 -108 c-3 -59 -10 -157 -16
-218 -5 -60 -14 -166 -20 -235 -5 -69 -15 -188 -22 -265 -20 -231 -22 -215 41
-237 34 -11 58 -15 64 -9 5 5 13 60 18 123 12 170 28 378 39 518 5 69 15 195
20 280 6 85 12 160 14 166 2 6 30 16 62 23 33 7 77 17 99 21 22 5 49 11 60 14
50 10 49 15 42 -126z m2282 113 c20 -5 63 -15 96 -21 107 -21 102 -16 109
-127 4 -54 11 -150 16 -213 16 -201 29 -370 40 -530 17 -237 20 -260 34 -260
8 0 37 10 66 22 l52 22 -6 55 c-3 31 -11 115 -17 186 -5 72 -14 182 -19 245
-14 161 -29 348 -37 459 l-6 94 24 -6 c13 -3 60 -13 104 -22 44 -9 83 -18 86
-21 8 -5 30 -203 59 -534 6 -69 15 -161 20 -205 5 -44 12 -116 15 -160 5 -77
4 -83 -29 -145 -37 -71 -46 -78 -191 -139 -44 -19 -107 -46 -140 -61 -109 -48
-124 -53 -138 -43 -6 5 -37 20 -68 32 l-57 22 -6 60 c-4 33 -11 134 -17 225
-5 90 -13 238 -19 329 -19 313 -30 500 -37 623 -7 136 -9 132 66 113z m856
-172 c83 -17 167 -35 188 -39 21 -4 43 -12 48 -17 5 -5 10 -38 11 -73 3 -73
14 -68 -102 -50 -36 5 -80 12 -99 16 l-34 7 5 -61 c3 -33 9 -65 12 -70 3 -6
53 -13 110 -17 57 -4 108 -10 114 -14 7 -4 14 -39 18 -78 l7 -72 -110 6 c-89
5 -111 3 -115 -8 -6 -16 7 -154 20 -214 9 -46 6 -46 145 -13 48 11 90 19 92
16 2 -2 10 -37 16 -77 10 -61 10 -74 -2 -81 -7 -5 -70 -30 -139 -55 -69 -25
-158 -59 -199 -75 -40 -16 -77 -27 -82 -24 -5 3 -9 25 -9 49 0 24 -4 77 -9
117 -5 40 -15 129 -21 198 -6 69 -15 163 -20 210 -5 47 -14 139 -20 205 -7 66
-15 148 -19 183 -8 69 -6 76 24 67 11 -3 88 -19 170 -36z m-3924 4 c46 -37 57
-52 54 -70 -2 -10 -9 -78 -16 -151 l-12 -133 -61 -55 -61 -54 -71 0 c-50 0
-75 -4 -83 -14 -7 -8 -16 -53 -22 -100 -5 -47 -13 -125 -19 -173 -5 -49 -10
-94 -10 -100 0 -7 -6 -13 -14 -13 -19 0 -118 41 -134 55 -13 12 -10 64 19 290
13 106 28 233 39 325 17 149 15 146 73 159 239 55 286 60 318 34z"/>
<path d="M3913 3386 c-29 -6 -56 -15 -62 -21 -5 -5 -11 -82 -12 -170 l-4 -160
63 2 c35 1 70 4 78 7 12 5 14 36 12 177 -2 105 -7 173 -13 174 -5 1 -33 -3
-62 -9z"/>
<path d="M5003 3365 c-8 -24 34 -1383 44 -1394 5 -6 110 29 129 44 14 10 15
46 5 328 -6 174 -16 460 -21 635 -6 174 -13 331 -15 348 -5 28 -10 32 -48 38
-23 3 -52 9 -64 12 -16 4 -25 1 -30 -11z"/>
<path d="M2388 3123 c-10 -12 -17 -43 -19 -88 -4 -64 -2 -70 16 -73 40 -6 55
18 61 101 l7 77 -25 0 c-14 0 -32 -8 -40 -17z"/>
<path d="M2691 4463 c-18 -36 -74 -251 -68 -266 5 -13 34 -16 190 -17 210 0
215 1 198 67 -6 21 -17 74 -26 118 -25 122 -16 115 -160 115 -108 0 -125 -2
-134 -17z"/>
<path d="M6016 4448 c-8 -18 -24 -82 -36 -141 -20 -92 -21 -110 -9 -118 17
-11 361 -10 380 1 10 7 7 32 -20 132 -19 68 -38 131 -43 141 -8 15 -25 17
-134 17 l-125 0 -13 -32z"/>
<path d="M2321 4028 c-80 -398 -82 -416 -46 -410 11 2 92 26 180 54 88 28 243
76 345 108 102 32 204 64 228 71 65 19 67 25 42 134 l-23 95 -358 0 -358 0
-10 -52z"/>
<path d="M5926 4058 c-3 -13 -13 -56 -22 -96 -9 -40 -14 -75 -11 -78 5 -6 98
-35 532 -169 253 -78 285 -86 295 -80 6 4 8 21 4 43 -15 93 -75 385 -80 393
-3 5 -165 9 -359 9 l-355 0 -4 -22z"/>
</g>
</svg>
